<mxfile host="app.diagrams.net" agent="Mozilla/5.0 (Windows NT 10.0; Win64; x64) AppleWebKit/537.36 (KHTML, like Gecko) Chrome/130.0.0.0 Safari/537.36" version="24.8.6">
  <diagram name="Page-1" id="x_zMMxYyY8Zf5vfGr3qV">
    <mxGraphModel dx="2074" dy="1098" grid="1" gridSize="10" guides="1" tooltips="1" connect="1" arrows="1" fold="1" page="1" pageScale="1" pageWidth="827" pageHeight="1169" math="0" shadow="0">
      <root>
        <mxCell id="0" />
        <mxCell id="1" parent="0" />
        <mxCell id="r1e56Lt2FbkrLY6wFx3a-11" style="edgeStyle=orthogonalEdgeStyle;rounded=0;orthogonalLoop=1;jettySize=auto;html=1;exitX=1;exitY=0.5;exitDx=0;exitDy=0;" edge="1" parent="1" source="r1e56Lt2FbkrLY6wFx3a-3" target="r1e56Lt2FbkrLY6wFx3a-10">
          <mxGeometry relative="1" as="geometry" />
        </mxCell>
        <mxCell id="r1e56Lt2FbkrLY6wFx3a-3" value="Internet" style="image;aspect=fixed;perimeter=ellipsePerimeter;html=1;align=center;shadow=0;dashed=0;spacingTop=3;image=img/lib/active_directory/internet_cloud.svg;labelPosition=center;verticalLabelPosition=top;verticalAlign=bottom;" vertex="1" parent="1">
          <mxGeometry y="120" width="190" height="119.69" as="geometry" />
        </mxCell>
        <mxCell id="r1e56Lt2FbkrLY6wFx3a-15" style="edgeStyle=orthogonalEdgeStyle;rounded=0;orthogonalLoop=1;jettySize=auto;html=1;exitX=0.25;exitY=1;exitDx=0;exitDy=0;entryX=1;entryY=0.5;entryDx=0;entryDy=0;" edge="1" parent="1" source="r1e56Lt2FbkrLY6wFx3a-8" target="r1e56Lt2FbkrLY6wFx3a-14">
          <mxGeometry relative="1" as="geometry" />
        </mxCell>
        <mxCell id="r1e56Lt2FbkrLY6wFx3a-17" style="edgeStyle=orthogonalEdgeStyle;rounded=0;orthogonalLoop=1;jettySize=auto;html=1;exitX=0.75;exitY=1;exitDx=0;exitDy=0;" edge="1" parent="1" source="r1e56Lt2FbkrLY6wFx3a-8" target="r1e56Lt2FbkrLY6wFx3a-16">
          <mxGeometry relative="1" as="geometry" />
        </mxCell>
        <mxCell id="r1e56Lt2FbkrLY6wFx3a-8" value="Switch" style="image;html=1;image=img/lib/clip_art/networking/Switch_128x128.png;labelPosition=left;verticalLabelPosition=middle;align=right;verticalAlign=middle;" vertex="1" parent="1">
          <mxGeometry x="400" y="280" width="120" height="120" as="geometry" />
        </mxCell>
        <mxCell id="r1e56Lt2FbkrLY6wFx3a-13" style="edgeStyle=orthogonalEdgeStyle;rounded=0;orthogonalLoop=1;jettySize=auto;html=1;exitX=0.5;exitY=1;exitDx=0;exitDy=0;" edge="1" parent="1" source="r1e56Lt2FbkrLY6wFx3a-9" target="r1e56Lt2FbkrLY6wFx3a-8">
          <mxGeometry relative="1" as="geometry" />
        </mxCell>
        <mxCell id="r1e56Lt2FbkrLY6wFx3a-9" value="Router" style="image;html=1;image=img/lib/clip_art/networking/Router_128x128.png;labelPosition=center;verticalLabelPosition=top;align=center;verticalAlign=bottom;" vertex="1" parent="1">
          <mxGeometry x="400" y="120" width="120" height="120" as="geometry" />
        </mxCell>
        <mxCell id="r1e56Lt2FbkrLY6wFx3a-12" style="edgeStyle=orthogonalEdgeStyle;rounded=0;orthogonalLoop=1;jettySize=auto;html=1;exitX=1;exitY=0.5;exitDx=0;exitDy=0;" edge="1" parent="1" source="r1e56Lt2FbkrLY6wFx3a-10" target="r1e56Lt2FbkrLY6wFx3a-9">
          <mxGeometry relative="1" as="geometry" />
        </mxCell>
        <mxCell id="r1e56Lt2FbkrLY6wFx3a-10" value="Firewall" style="image;html=1;image=img/lib/clip_art/networking/Firewall-page1_128x128.png;labelPosition=center;verticalLabelPosition=top;align=center;verticalAlign=bottom;" vertex="1" parent="1">
          <mxGeometry x="240" y="119.69" width="120" height="120" as="geometry" />
        </mxCell>
        <mxCell id="r1e56Lt2FbkrLY6wFx3a-31" style="edgeStyle=elbowEdgeStyle;rounded=0;orthogonalLoop=1;jettySize=auto;html=1;exitX=0.5;exitY=1;exitDx=0;exitDy=0;entryX=1;entryY=0.5;entryDx=0;entryDy=0;" edge="1" parent="1" source="r1e56Lt2FbkrLY6wFx3a-14" target="r1e56Lt2FbkrLY6wFx3a-21">
          <mxGeometry relative="1" as="geometry" />
        </mxCell>
        <mxCell id="r1e56Lt2FbkrLY6wFx3a-32" style="edgeStyle=elbowEdgeStyle;rounded=0;orthogonalLoop=1;jettySize=auto;html=1;exitX=0.5;exitY=1;exitDx=0;exitDy=0;entryX=0;entryY=0.5;entryDx=0;entryDy=0;" edge="1" parent="1" source="r1e56Lt2FbkrLY6wFx3a-14" target="r1e56Lt2FbkrLY6wFx3a-18">
          <mxGeometry relative="1" as="geometry" />
        </mxCell>
        <mxCell id="r1e56Lt2FbkrLY6wFx3a-33" style="edgeStyle=elbowEdgeStyle;rounded=0;orthogonalLoop=1;jettySize=auto;html=1;exitX=0.5;exitY=1;exitDx=0;exitDy=0;entryX=1;entryY=0.5;entryDx=0;entryDy=0;" edge="1" parent="1" source="r1e56Lt2FbkrLY6wFx3a-14" target="r1e56Lt2FbkrLY6wFx3a-20">
          <mxGeometry relative="1" as="geometry" />
        </mxCell>
        <mxCell id="r1e56Lt2FbkrLY6wFx3a-34" style="edgeStyle=elbowEdgeStyle;rounded=0;orthogonalLoop=1;jettySize=auto;html=1;exitX=0.5;exitY=1;exitDx=0;exitDy=0;entryX=0;entryY=0.5;entryDx=0;entryDy=0;" edge="1" parent="1" source="r1e56Lt2FbkrLY6wFx3a-14" target="r1e56Lt2FbkrLY6wFx3a-19">
          <mxGeometry relative="1" as="geometry" />
        </mxCell>
        <mxCell id="r1e56Lt2FbkrLY6wFx3a-35" style="edgeStyle=elbowEdgeStyle;rounded=0;orthogonalLoop=1;jettySize=auto;html=1;exitX=0.5;exitY=1;exitDx=0;exitDy=0;" edge="1" parent="1" source="r1e56Lt2FbkrLY6wFx3a-14" target="r1e56Lt2FbkrLY6wFx3a-25">
          <mxGeometry relative="1" as="geometry" />
        </mxCell>
        <mxCell id="r1e56Lt2FbkrLY6wFx3a-36" style="edgeStyle=elbowEdgeStyle;rounded=0;orthogonalLoop=1;jettySize=auto;html=1;exitX=0.5;exitY=1;exitDx=0;exitDy=0;entryX=0;entryY=0.5;entryDx=0;entryDy=0;" edge="1" parent="1" source="r1e56Lt2FbkrLY6wFx3a-14" target="r1e56Lt2FbkrLY6wFx3a-22">
          <mxGeometry relative="1" as="geometry" />
        </mxCell>
        <mxCell id="r1e56Lt2FbkrLY6wFx3a-37" style="edgeStyle=elbowEdgeStyle;rounded=0;orthogonalLoop=1;jettySize=auto;html=1;exitX=0.5;exitY=1;exitDx=0;exitDy=0;" edge="1" parent="1" source="r1e56Lt2FbkrLY6wFx3a-14" target="r1e56Lt2FbkrLY6wFx3a-24">
          <mxGeometry relative="1" as="geometry" />
        </mxCell>
        <mxCell id="r1e56Lt2FbkrLY6wFx3a-38" style="edgeStyle=elbowEdgeStyle;rounded=0;orthogonalLoop=1;jettySize=auto;html=1;exitX=0.5;exitY=1;exitDx=0;exitDy=0;entryX=0;entryY=0.5;entryDx=0;entryDy=0;" edge="1" parent="1" source="r1e56Lt2FbkrLY6wFx3a-14" target="r1e56Lt2FbkrLY6wFx3a-23">
          <mxGeometry relative="1" as="geometry" />
        </mxCell>
        <mxCell id="r1e56Lt2FbkrLY6wFx3a-14" value="Rasperry Pi webserver &amp;amp; Database" style="shape=image;html=1;verticalAlign=bottom;verticalLabelPosition=top;labelBackgroundColor=#ffffff;imageAspect=0;aspect=fixed;image=https://cdn1.iconfinder.com/data/icons/fruit-136/64/Fruit_iconfree_Filled_Outline_raspberry-healthy-organic-food-fruit_icon-128.png;labelPosition=center;align=center;" vertex="1" parent="1">
          <mxGeometry x="200" y="400" width="120" height="120" as="geometry" />
        </mxCell>
        <mxCell id="r1e56Lt2FbkrLY6wFx3a-16" value="Henrik Haalands Laptop" style="image;html=1;image=img/lib/clip_art/computers/Laptop_128x128.png;labelPosition=center;verticalLabelPosition=top;align=center;verticalAlign=bottom;" vertex="1" parent="1">
          <mxGeometry x="600" y="400" width="120" height="120" as="geometry" />
        </mxCell>
        <mxCell id="r1e56Lt2FbkrLY6wFx3a-18" value="Elev" style="image;html=1;image=img/lib/clip_art/computers/Laptop_128x128.png;labelPosition=right;verticalLabelPosition=middle;align=left;verticalAlign=middle;" vertex="1" parent="1">
          <mxGeometry x="360" y="560" width="80" height="80" as="geometry" />
        </mxCell>
        <mxCell id="r1e56Lt2FbkrLY6wFx3a-19" value="Elev" style="image;html=1;image=img/lib/clip_art/computers/Laptop_128x128.png;labelPosition=right;verticalLabelPosition=middle;align=left;verticalAlign=middle;" vertex="1" parent="1">
          <mxGeometry x="360" y="640" width="80" height="80" as="geometry" />
        </mxCell>
        <mxCell id="r1e56Lt2FbkrLY6wFx3a-20" value="Elev" style="image;html=1;image=img/lib/clip_art/computers/Laptop_128x128.png;labelPosition=left;verticalLabelPosition=middle;align=right;verticalAlign=middle;" vertex="1" parent="1">
          <mxGeometry x="80" y="640" width="80" height="80" as="geometry" />
        </mxCell>
        <mxCell id="r1e56Lt2FbkrLY6wFx3a-21" value="Elev" style="image;html=1;image=img/lib/clip_art/computers/Laptop_128x128.png;labelPosition=left;verticalLabelPosition=middle;align=right;verticalAlign=middle;" vertex="1" parent="1">
          <mxGeometry x="80" y="560" width="80" height="80" as="geometry" />
        </mxCell>
        <mxCell id="r1e56Lt2FbkrLY6wFx3a-22" value="Elev" style="image;html=1;image=img/lib/clip_art/computers/Laptop_128x128.png;labelPosition=right;verticalLabelPosition=middle;align=left;verticalAlign=middle;" vertex="1" parent="1">
          <mxGeometry x="360" y="720" width="80" height="80" as="geometry" />
        </mxCell>
        <mxCell id="r1e56Lt2FbkrLY6wFx3a-23" value="Elev" style="image;html=1;image=img/lib/clip_art/computers/Laptop_128x128.png;labelPosition=right;verticalLabelPosition=middle;align=left;verticalAlign=middle;" vertex="1" parent="1">
          <mxGeometry x="360" y="800" width="80" height="80" as="geometry" />
        </mxCell>
        <mxCell id="r1e56Lt2FbkrLY6wFx3a-24" value="Elev" style="image;html=1;image=img/lib/clip_art/computers/Laptop_128x128.png;labelPosition=left;verticalLabelPosition=middle;align=right;verticalAlign=middle;" vertex="1" parent="1">
          <mxGeometry x="80" y="800" width="80" height="80" as="geometry" />
        </mxCell>
        <mxCell id="r1e56Lt2FbkrLY6wFx3a-25" value="Elev" style="image;html=1;image=img/lib/clip_art/computers/Laptop_128x128.png;labelPosition=left;verticalLabelPosition=middle;align=right;verticalAlign=middle;" vertex="1" parent="1">
          <mxGeometry x="80" y="720" width="80" height="80" as="geometry" />
        </mxCell>
      </root>
    </mxGraphModel>
  </diagram>
</mxfile>
